<?xml version="1.0" standalone="no"?>
<!DOCTYPE svg PUBLIC "-//W3C//DTD SVG 20010904//EN"
 "http://www.w3.org/TR/2001/REC-SVG-20010904/DTD/svg10.dtd">
<svg version="1.0" xmlns="http://www.w3.org/2000/svg"
 width="200.000000pt" height="200.000000pt" viewBox="0 0 200.000000 200.000000"
 preserveAspectRatio="xMidYMid meet">

<g transform="translate(0.000000,200.000000) scale(0.100000,-0.100000)"
fill="#000000" stroke="none">
<path d="M1640 1879 c-227 -123 -428 -332 -582 -601 -26 -46 -51 -89 -56 -97
-10 -17 -175 -44 -168 -27 2 6 11 28 20 49 9 20 12 37 7 37 -18 0 -130 -111
-179 -178 -70 -95 -120 -196 -102 -207 5 -3 38 22 74 56 l66 61 93 -7 94 -7
-13 -46 c-15 -47 -7 -72 22 -72 26 0 207 270 192 286 -3 2 -36 -31 -74 -75
-38 -44 -71 -78 -72 -76 -2 2 26 65 63 140 101 203 207 357 339 490 105 106
201 183 213 172 8 -8 -30 -104 -81 -206 -74 -147 -214 -338 -326 -446 -23 -22
-57 -69 -76 -105 -18 -36 -59 -98 -89 -137 -54 -71 -56 -93 -5 -53 14 11 30
20 35 20 6 0 25 -38 43 -84 l33 -83 -41 -79 c-24 -47 -36 -82 -31 -87 32 -32
229 211 280 346 13 34 1 34 -37 2 -17 -14 -32 -25 -35 -25 -2 0 -10 37 -17 82
l-12 81 85 86 c239 243 382 506 431 794 9 48 1 48 -94 -4z"/>
<path d="M736 1535 c-209 -86 -348 -281 -363 -506 -10 -155 34 -290 138 -418
l51 -64 -17 -36 c-10 -20 -51 -115 -92 -211 -41 -96 -79 -179 -84 -185 -5 -5
-9 -14 -9 -19 0 -6 17 6 38 25 20 20 102 90 182 156 80 66 153 129 163 140 17
20 20 20 65 6 53 -18 242 -21 281 -6 20 8 8 11 -60 16 -72 5 -175 31 -209 52
-6 4 -2 18 10 35 67 94 90 210 50 250 -42 42 -114 17 -202 -71 l-62 -61 -23
28 c-35 42 -80 140 -98 209 -20 77 -19 211 1 289 38 146 161 306 284 369 67
34 36 35 -44 2z m84 -856 c0 -52 -55 -135 -159 -238 -58 -58 -106 -100 -108
-94 -6 16 81 188 124 246 37 51 106 107 130 107 7 0 13 -9 13 -21z"/>
</g>
</svg>
