<?xml version="1.0" standalone="no"?>
<!DOCTYPE svg PUBLIC "-//W3C//DTD SVG 20010904//EN"
 "http://www.w3.org/TR/2001/REC-SVG-20010904/DTD/svg10.dtd">
<svg version="1.0" xmlns="http://www.w3.org/2000/svg"
 width="1200.000000pt" height="1200.000000pt" viewBox="0 0 1200.000000 1200.000000"
 preserveAspectRatio="xMidYMid meet">

<g transform="translate(0.000000,1200.000000) scale(0.100000,-0.100000)"
fill="#000000" stroke="none">
<path d="M0 6000 l0 -6000 6000 0 6000 0 0 6000 0 6000 -6000 0 -6000 0 0
-6000z m6195 3358 c210 -70 357 -242 393 -462 13 -83 13 -102 -1 -184 -37
-221 -181 -389 -397 -463 -85 -29 -246 -31 -335 -5 -188 55 -346 213 -401 401
-12 40 -18 94 -18 160 0 116 19 189 69 281 86 154 246 268 413 294 79 12 205
2 277 -22z m-547 -1123 c23 -15 42 -30 42 -34 0 -3 -279 -508 -619 -1121 -341
-613 -619 -1116 -618 -1117 1 -1 29 5 62 13 635 150 1734 182 2552 74 151 -20
455 -74 488 -86 22 -9 103 -159 -616 1138 -335 603 -609 1099 -609 1102 0 2
17 15 38 27 20 13 60 45 89 72 l51 48 55 -98 c215 -384 1319 -2377 1323 -2388
3 -8 -8 -17 -29 -24 -19 -7 -62 -31 -96 -55 l-62 -42 -138 32 c-243 56 -516
98 -861 131 -234 22 -1087 26 -1325 5 -371 -32 -682 -78 -918 -136 l-136 -33
-62 43 c-34 24 -77 48 -95 54 -19 7 -34 14 -34 16 0 3 311 565 691 1250 l692
1244 46 -43 c26 -24 66 -57 89 -72z m-1586 -2455 c406 -126 542 -636 253 -948
-115 -124 -256 -186 -425 -186 -211 0 -397 105 -503 285 -58 99 -72 155 -72
294 0 139 14 195 72 294 78 132 228 243 363 270 30 6 64 13 75 15 39 9 175 -5
237 -24z m4234 6 c131 -35 272 -141 342 -258 63 -106 76 -159 76 -303 0 -110
-3 -139 -22 -189 -68 -184 -210 -316 -397 -372 -139 -41 -321 -16 -454 63
-310 185 -375 622 -131 887 152 165 372 229 586 172z m-1315 -1965 c110 -42
175 -108 205 -207 21 -71 20 -669 -1 -742 -28 -94 -118 -180 -225 -213 -54
-18 -264 -23 -330 -9 -84 18 -168 68 -213 126 -65 85 -68 109 -65 491 3 336 3
338 28 388 45 90 120 149 233 180 81 23 295 15 368 -14z m-4085 -565 c112
-319 204 -586 204 -593 0 -11 -22 -13 -107 -11 l-106 3 -42 125 -42 125 -238
0 -239 0 -39 -127 -40 -128 -114 0 c-76 0 -113 4 -113 11 0 6 91 262 201 568
111 306 206 569 211 584 l10 28 125 -3 126 -3 203 -579z m1099 546 c66 -30
102 -66 131 -127 22 -47 24 -62 24 -226 0 -201 -10 -245 -67 -304 -69 -72
-163 -95 -380 -95 l-133 0 0 -200 0 -200 -105 0 -105 0 0 591 0 590 293 -3
c280 -3 294 -4 342 -26z m1022 -1 c62 -27 125 -92 144 -147 10 -27 14 -91 14
-214 0 -172 -1 -176 -28 -233 -32 -65 -72 -99 -149 -129 -44 -17 -83 -22 -230
-26 l-178 -5 0 -198 0 -199 -100 0 -100 0 0 591 0 590 288 -3 c277 -3 289 -4
339 -27z m593 -501 l0 -530 275 0 275 0 0 -60 0 -60 -335 0 -335 0 0 590 0
590 60 0 60 0 0 -530z m2069 42 c96 -268 182 -504 191 -526 l16 -39 189 527
189 526 63 0 62 0 -37 -103 c-20 -56 -116 -322 -212 -590 l-175 -487 -80 0
-81 0 -210 590 -211 590 61 0 61 0 174 -488z m1071 -102 l0 -590 -55 0 -55 0
0 590 0 590 55 0 55 0 0 -590z m894 92 l251 -492 3 495 2 495 55 0 55 0 0
-590 0 -591 -71 3 -70 3 -267 507 c-147 279 -270 508 -274 508 -5 0 -8 -229
-8 -510 l0 -510 -55 0 -55 0 0 590 0 591 91 -3 92 -3 251 -493z"/>
<path d="M5888 9201 c-77 -25 -117 -52 -181 -121 -78 -84 -101 -147 -101 -275
0 -139 23 -196 118 -291 54 -54 85 -76 131 -94 120 -46 266 -36 370 26 47 27
123 104 153 154 68 116 68 294 0 410 -30 50 -106 127 -153 154 -95 56 -230 71
-337 37z"/>
<path d="M3765 5623 c-77 -28 -139 -68 -185 -120 -185 -208 -123 -527 126
-650 259 -127 560 40 598 332 14 106 -38 250 -121 333 -27 27 -80 64 -117 82
-60 30 -80 35 -160 37 -68 3 -103 -1 -141 -14z"/>
<path d="M8025 5627 c-274 -91 -384 -397 -228 -635 43 -65 89 -104 173 -145
60 -30 72 -32 170 -32 97 0 110 2 173 32 170 81 272 269 239 444 -25 137 -106
245 -229 306 -68 34 -84 37 -167 40 -56 2 -106 -2 -131 -10z"/>
<path d="M6650 3745 c-76 -21 -129 -61 -159 -120 l-26 -49 0 -336 0 -335 25
-45 c52 -93 162 -136 325 -128 145 8 228 56 264 154 20 51 21 76 21 358 0 342
-5 371 -70 436 -20 20 -59 45 -86 55 -68 24 -223 29 -294 10z"/>
<path d="M2535 3493 c-15 -43 -51 -146 -81 -230 -30 -84 -54 -155 -54 -158 0
-3 74 -5 165 -5 91 0 165 3 165 8 0 8 -160 455 -164 460 -2 1 -16 -32 -31 -75z"/>
<path d="M3570 3446 l0 -206 145 0 c155 0 204 10 224 48 12 22 15 260 5 300
-12 44 -56 56 -221 60 l-153 4 0 -206z"/>
<path d="M4590 3445 l0 -205 148 0 c228 0 246 17 240 225 -4 137 -14 158 -88
174 -28 6 -107 11 -175 11 l-125 0 0 -205z"/>
</g>
</svg>
