<svg version="1.1" id="Layer_1" xmlns="http://www.w3.org/2000/svg" xmlns:xlink="http://www.w3.org/1999/xlink" x="0px" y="0px" width="159px" height="181.3px" viewBox="-12 0 159 181.3" enable-background="new -12 0 159 181.3" xml:space="preserve"><g>
    <path fill="#2b1a39" d="M-10.3,0v147.1h155.9V0H-10.3z M46.9,69c0,9-3,14-9.5,15.8c6.9,2.8,9.5,7.7,9.5,18.3v15.5l-26.7-0.2V98.1 c0-4-4.4-4.5-8.1-5.8V77.9c3.6-1.2,8.1-2.4,8.1-5.6V50.9h26.7V69z M46.9,46.9h-27V26.1h27V46.9z M86.3,121.4 c-24,0-35.4-12.8-35.4-29v-4.9h26.9v2.1c0,5.3,2.7,8.9,8,8.9c4.8,0,7.2-2.2,7.2-6c0-10.7-41.1-8.9-41.1-38.9 c0-16.2,10.2-30.3,35.6-30.3c22.8,0,34.2,12.8,34.2,29v5.3H94.9v-3c0-4.3-2.2-8.7-7.3-8.7c-4,0-6.4,2.3-6.4,5.9 c0,11.8,41,8.8,41,38.8C122,106.8,111.3,121.4,86.3,121.4z"></path>
</g>
<g>
    <g>
        <path fill="#2b1a39" d="M-10.1,157.9h5.8v4.3h-5.8V157.9z M-10.1,164.1h5.8v15.3h-5.8V164.1z"></path>
        <path fill="#2b1a39" d="M3,166.4L3,166.4c1.3-1.9,2.8-2.6,4.8-2.6c0.5,0,0.7,0.1,1,0.1v4.8H8.6c-3.4-0.6-5.3,1-5.3,4.4v6.4h-5.8 v-15.3H3V166.4z"></path>
        <path fill="#2b1a39" d="M9.3,171.8c0-4.7,3.4-8.1,8.4-8.1c5.2,0,8.4,3.5,8.4,8.1c0,4.7-3.2,8.1-8.4,8.1S9.3,176.5,9.3,171.8z M20.3,171.8c0-2.6-1-4.3-2.6-4.3c-1.8,0-2.6,1.8-2.6,4.3c0,2.6,0.8,4.3,2.6,4.3C19.4,176.1,20.3,174.4,20.3,171.8z"></path>
        <path fill="#2b1a39" d="M32.9,166.2L32.9,166.2c1.3-1.7,2.9-2.6,5-2.6c3.6,0,5.4,2.4,5.4,5.9v9.9h-5.8v-8.5c0-1.6-0.7-2.6-2.2-2.6 c-1.4,0-2.3,1.3-2.3,2.9v8.3h-5.8v-15.2h5.4v2H32.9z"></path>
        <path fill="#2b1a39" d="M44.4,172.6h6.5c0.2,1.7,1.6,2.5,3.6,2.5c1.2,0,2.8-0.5,2.8-1.8s-1.4-1.7-4.1-2.3c-3.6-1-8-2.2-8-6.7 c0-4.9,4.1-6.8,8.9-6.8c4.4,0,8.5,1.9,8.6,6.6h-6.2c-0.2-1.2-1.1-1.9-2.8-1.9c-1.4,0-2.4,0.6-2.4,1.6c0,1.3,1.8,1.4,5,2.3 c3.6,0.8,7.2,2.3,7.2,6.8c0,4.7-4.2,7.2-9.2,7.2C48.7,179.9,44.6,177.5,44.4,172.6z"></path>
        <path fill="#2b1a39" d="M64.7,171.8c0-4.7,3.4-8.1,8.4-8.1c5.2,0,8.4,3.5,8.4,8.1c0,4.7-3.2,8.1-8.4,8.1S64.7,176.5,64.7,171.8z M75.7,171.8c0-2.6-1-4.3-2.6-4.3c-1.8,0-2.6,1.8-2.6,4.3c0,2.6,0.8,4.3,2.6,4.3C74.8,176.1,75.7,174.4,75.7,171.8z"></path>
        <path fill="#2b1a39" d="M93.1,179.5v-2H93c-1.2,1.6-2.6,2.5-4.8,2.5c-3.7,0-5.5-2.4-5.5-6v-9.8h5.8v8.5c0,1.6,0.7,2.4,2,2.4 c1.4,0,2.4-1.1,2.4-2.8v-8.1h5.8v15.3H93.1z"></path>
        <path fill="#2b1a39" d="M106,166.4L106,166.4c1.3-1.9,2.8-2.6,4.8-2.6c0.5,0,0.7,0.1,1,0.1v4.8h-0.1c-3.4-0.6-5.3,1-5.3,4.4v6.4 h-5.8v-15.3h5.4V166.4z"></path>
        <path fill="#2b1a39" d="M112.3,171.8c0-4.7,3.4-8.1,8.4-8.1c4.3,0,7.2,2.5,7.7,6.1h-5.5c-0.4-1.4-1-2.2-2.2-2.2 c-1.8,0-2.6,1.6-2.6,4.2c0,2.5,1,4.1,2.6,4.1c1.4,0,2-1,2.3-2.6h5.5c0,3.8-3.1,6.7-7.7,6.7C115.6,179.9,112.3,176.5,112.3,171.8z"></path>
        <path fill="#2b1a39" d="M129.2,171.7c0-4.7,3.4-8.1,8.1-8.1c2.4,0,4.2,0.8,5.6,2c1.9,1.7,2.8,4.4,2.6,7.6h-11 c0.4,1.8,1.3,2.9,3,2.9c1,0,1.7-0.4,2.2-1.2h5.5c-0.4,1.4-1.4,2.8-2.9,3.7c-1.4,1-3,1.3-4.9,1.3 C132.5,179.8,129.2,176.5,129.2,171.7z M134.7,170.1h5.3c-0.2-1.7-1.2-2.8-2.5-2.8C135.9,167.4,135,168.4,134.7,170.1z"></path>
    </g>
</g>
</svg>