<?xml version="1.0" encoding="UTF-8"?>
<svg width="256px" height="263px" viewBox="0 0 256 263" version="1.1" xmlns="http://www.w3.org/2000/svg" xmlns:xlink="http://www.w3.org/1999/xlink">
    <!-- Generator: Sketch 51.2 (57519) - http://www.bohemiancoding.com/sketch -->
    <title>unity-69</title>
    <desc>Created with Sketch.</desc>
    <defs></defs>
    <g id="Page-1" stroke="none" stroke-width="1" fill="none" fill-rule="evenodd">
        <g id="unity-69" fill="#222C37" fill-rule="nonzero">
            <path d="M166.872,131.237 L212.782,51.962 L234.966,131.237 L212.781,210.493 L166.872,131.237 Z M144.496,144.111 L190.412,223.373 L110.446,202.887 L52.676,144.111 L144.496,144.111 Z M190.402,39.078 L144.496,118.353 L52.676,118.353 L110.446,59.573 L190.402,39.078 Z M255.941,104.258 L227.933,0.06 L123.393,27.985 L107.918,55.192 L76.517,54.967 L0,131.244 L76.517,207.503 L76.52,207.503 L107.908,207.271 L123.405,234.478 L227.933,262.398 L255.94,158.22 L240.034,131.238 L255.94,104.26 L255.941,104.258 Z" id="Shape"></path>
        </g>
    </g>
</svg>